<svg id="Nature_s_Vault_Logo" data-name="Nature&apos;s Vault Logo" xmlns="http://www.w3.org/2000/svg" xmlns:xlink="http://www.w3.org/1999/xlink" width="250" height="64.884" viewBox="0 0 250 64.884">
  <defs>
    <clipPath id="clip-path">
      <rect id="Rectangle_1" data-name="Rectangle 1" width="250" height="64.884" fill="none"/>
    </clipPath>
  </defs>
  <g id="Group_1" data-name="Group 1" clip-path="url(#clip-path)">
    <path id="Path_1" data-name="Path 1" d="M37.162,2.045A4.7,4.7,0,0,1,40.768,0H52a2.9,2.9,0,0,1,2.749,2.37l4.48,27.7a1.968,1.968,0,0,1-1.982,2.37H56.075a2.913,2.913,0,0,1-2.756-2.369L49.727,8.268A2.914,2.914,0,0,0,46.97,5.9H44.041a4.678,4.678,0,0,0-3.6,2.049l-33,54.885a4.679,4.679,0,0,1-3.6,2.05H1.429c-1.3,0-1.809-.92-1.126-2.045Z" transform="translate(0)" fill="#fff"/>
    <path id="Path_2" data-name="Path 2" d="M218.9,62.837a4.7,4.7,0,0,1-3.606,2.045H204.066a2.9,2.9,0,0,1-2.748-2.37l-4.48-27.7a1.967,1.967,0,0,1,1.982-2.37h1.167a2.912,2.912,0,0,1,2.755,2.368l3.593,21.806a2.914,2.914,0,0,0,2.757,2.368h2.929a4.68,4.68,0,0,0,3.6-2.049l33-54.886a4.681,4.681,0,0,1,3.6-2.05h2.412c1.3,0,1.809.92,1.125,2.045Z" transform="translate(-162.207 0.001)" fill="#fff"/>
    <path id="Path_3" data-name="Path 3" d="M611.844,21.5v21.03h-1.805l-13.32-17.065V42.533h-2.19V21.5h1.805l13.349,17.064V21.5Z" transform="translate(-490.008 -17.665)" fill="#fff"/>
    <path id="Path_4" data-name="Path 4" d="M728.857,36.914H717.314l-2.486,5.618h-2.279L722.02,21.5h2.161l9.471,21.03h-2.309Zm-.8-1.8-4.973-11.3-4.972,11.3Z" transform="translate(-587.278 -17.665)" fill="#fff"/>
    <path id="Path_5" data-name="Path 5" d="M834.99,23.425h-7.282V21.5h16.753v1.923H837.18V42.532h-2.19Z" transform="translate(-682.193 -17.665)" fill="#fff"/>
    <path id="Path_6" data-name="Path 6" d="M941.751,40.37q-2.25-2.343-2.25-6.82V21.5h2.191V33.46q0,3.666,1.628,5.468a7.083,7.083,0,0,0,9.442,0q1.628-1.8,1.629-5.468V21.5h2.131V33.55q0,4.477-2.235,6.82a9.554,9.554,0,0,1-12.536,0" transform="translate(-774.331 -17.666)" fill="#fff"/>
    <path id="Path_7" data-name="Path 7" d="M1088,42.533l-4.736-6.76a14.819,14.819,0,0,1-1.657.09h-5.565v6.67h-2.19V21.5h7.755a9.267,9.267,0,0,1,6.216,1.923,6.588,6.588,0,0,1,2.25,5.288,6.908,6.908,0,0,1-1.229,4.161,6.805,6.805,0,0,1-3.507,2.448l5.062,7.21Zm-1.746-9.944a4.807,4.807,0,0,0,1.628-3.876,4.833,4.833,0,0,0-1.628-3.92,7.137,7.137,0,0,0-4.706-1.367h-5.505V33.971h5.505a7.082,7.082,0,0,0,4.706-1.382" transform="translate(-885.065 -17.666)" fill="#fff"/>
    <path id="Path_8" data-name="Path 8" d="M1210.23,40.61v1.923h-14.651V21.5h14.208v1.923h-12.017v7.481h10.715V32.8h-10.715V40.61Z" transform="translate(-985.389 -17.666)" fill="#fff"/>
    <path id="Path_9" data-name="Path 9" d="M1300.8,14.056a1.609,1.609,0,0,1,.444,1.156,3.118,3.118,0,0,1-.1.766q-.1.406-.282.947l-1.273,4.146h-1.42l1.036-4.326a1.478,1.478,0,0,1-.8-.556,1.763,1.763,0,0,1,.148-2.148,1.512,1.512,0,0,1,1.125-.451,1.489,1.489,0,0,1,1.125.466" transform="translate(-1069.895 -11.165)" fill="#fff"/>
    <path id="Path_10" data-name="Path 10" d="M1337.577,41.13a8.1,8.1,0,0,1-3.271-1.983l.859-1.713a8.188,8.188,0,0,0,2.99,1.848,10.784,10.784,0,0,0,3.848.706,6.953,6.953,0,0,0,4.173-1.037,3.207,3.207,0,0,0,1.391-2.689,2.714,2.714,0,0,0-.755-2.013,5.1,5.1,0,0,0-1.85-1.157,29.567,29.567,0,0,0-3.049-.886,31.568,31.568,0,0,1-3.73-1.157,6.113,6.113,0,0,1-2.382-1.7,4.554,4.554,0,0,1-.992-3.095,5.3,5.3,0,0,1,.829-2.9,5.692,5.692,0,0,1,2.545-2.088,10.283,10.283,0,0,1,4.262-.781,12.383,12.383,0,0,1,3.479.5,9.933,9.933,0,0,1,2.945,1.367l-.74,1.772a10.126,10.126,0,0,0-2.783-1.307,10.248,10.248,0,0,0-2.9-.436,6.624,6.624,0,0,0-4.1,1.067,3.326,3.326,0,0,0-1.376,2.749,2.764,2.764,0,0,0,.754,2.028,4.932,4.932,0,0,0,1.894,1.172q1.139.405,3.064.886a30.567,30.567,0,0,1,3.685,1.127,6.053,6.053,0,0,1,2.383,1.683,4.5,4.5,0,0,1,.977,3.05,5.235,5.235,0,0,1-.844,2.9,5.685,5.685,0,0,1-2.59,2.073,10.676,10.676,0,0,1-4.292.766,13.124,13.124,0,0,1-4.425-.751" transform="translate(-1099.727 -16.834)" fill="#fff"/>
    <path id="Path_11" data-name="Path 11" d="M619.817,202.335l-8.689,20.73h-4.485l-8.689-20.73h5.106l3.7,9.706c.9,2.377,1.749,4.982,2.144,6.271.424-1.288,1.3-3.894,2.2-6.271l3.724-9.706Z" transform="translate(-492.83 -166.229)" fill="#fff"/>
    <path id="Path_12" data-name="Path 12" d="M741.741,218.4h-9.2l-1.579,4.009H726l9.083-20.873h4.231l9.084,20.873h-5.078Zm-1.5-3.808-1.128-2.863c-.875-2.233-1.58-4.295-1.946-5.326-.367,1.059-1.072,3.092-1.975,5.326l-1.129,2.863Z" transform="translate(-598.365 -165.57)" fill="#fff"/>
    <path id="Path_13" data-name="Path 13" d="M897.222,202.335v20.73h-3.639l-.9-2.262c-1.439,1.833-3.667,2.721-6.685,2.721-4.683,0-7.56-2.978-7.56-8.189v-13h4.6v12.427c0,2.863,1.608,4.466,4.26,4.466,3.582,0,5.36-1.489,5.36-5.3v-11.6Z" transform="translate(-724 -166.229)" fill="#fff"/>
    <path id="Path_14" data-name="Path 14" d="M1043.734,218.971v4.095H1028.3v-20.73h4.57v16.636Z" transform="translate(-847.521 -166.23)" fill="#fff"/>
    <path id="Path_15" data-name="Path 15" d="M1136.288,206.43h-6.94v16.636h-4.57V206.43h-6.94v-4.095h18.449Z" transform="translate(-921.316 -166.23)" fill="#fff"/>
  </g>
</svg>
